<?xml version="1.0" encoding="UTF-8"?>
<svg xmlns="http://www.w3.org/2000/svg" xmlns:xlink="http://www.w3.org/1999/xlink" width="68px" height="45px" viewBox="0 0 67 45" version="1.1">
<g id="surface1">
<path style=" stroke:none;fill-rule:nonzero;fill:rgb(84.705882%,12.156863%,14.901961%);fill-opacity:1;" d="M 14.816406 28.613281 C 14.042969 28.75 13.253906 28.789062 12.4375 28.898438 L 9.949219 21.554688 L 9.949219 29.214844 C 9.171875 29.296875 8.464844 29.40625 7.730469 29.515625 L 7.730469 15.484375 L 9.796875 15.484375 L 12.628906 23.445312 L 12.628906 15.484375 L 14.816406 15.484375 Z M 19.101562 20.621094 C 19.945312 20.621094 21.238281 20.582031 22.011719 20.582031 L 22.011719 22.773438 C 21.046875 22.773438 19.917969 22.773438 19.101562 22.816406 L 19.101562 26.078125 C 20.378906 25.996094 21.660156 25.882812 22.953125 25.84375 L 22.953125 27.953125 L 16.925781 28.433594 L 16.925781 15.484375 L 22.953125 15.484375 L 22.953125 17.675781 L 19.101562 17.675781 Z M 31.042969 17.675781 L 28.785156 17.675781 L 28.785156 27.761719 C 28.050781 27.761719 27.316406 27.761719 26.609375 27.789062 L 26.609375 17.675781 L 24.351562 17.675781 L 24.351562 15.484375 L 31.042969 15.484375 Z M 34.582031 20.472656 L 37.558594 20.472656 L 37.558594 22.664062 L 34.582031 22.664062 L 34.582031 27.640625 L 32.445312 27.640625 L 32.445312 15.484375 L 38.527344 15.484375 L 38.527344 17.675781 L 34.582031 17.675781 Z M 42.0625 25.71875 C 43.300781 25.746094 44.550781 25.84375 45.761719 25.914062 L 45.761719 28.078125 C 43.816406 27.953125 41.871094 27.832031 39.886719 27.789062 L 39.886719 15.484375 L 42.0625 15.484375 Z M 47.597656 28.226562 C 48.292969 28.269531 49.027344 28.308594 49.734375 28.390625 L 49.734375 15.484375 L 47.597656 15.484375 Z M 59.269531 15.484375 L 56.507812 22.15625 L 59.269531 29.515625 C 58.453125 29.40625 57.636719 29.257812 56.820312 29.117188 L 55.257812 25.0625 L 53.664062 28.789062 C 52.875 28.652344 52.113281 28.613281 51.324219 28.503906 L 54.128906 22.074219 L 51.597656 15.484375 L 53.9375 15.484375 L 55.367188 19.171875 L 56.890625 15.484375 Z M 59.269531 15.484375 "/>
</g>
</svg>
